<svg width="326" height="62" viewBox="0 0 326 62" fill="none" xmlns="http://www.w3.org/2000/svg">
<g clip-path="url(#clip0_3_122)">
<path d="M32.0001 12.29C32.0001 12.29 31.9301 12.35 31.9201 12.36C31.9101 12.37 32.4001 12.87 33.0101 13.48L35.3501 15.82C39.7801 20.26 42.6401 23.13 44.5801 25.07L46.1701 26.66C46.3001 26.79 46.4801 26.87 46.6601 26.87C46.8501 26.87 47.0201 26.8 47.1601 26.66L58.0101 15.81C58.1301 15.71 58.2201 15.48 58.2201 15.28C58.2101 15.09 58.1301 14.92 57.9901 14.81L57.9401 14.76L55.4101 12.23L54.6101 11.52C54.4701 11.41 54.1901 11.2 53.9801 11.05C53.9701 11.04 53.9501 11.03 53.9401 11.02C53.8201 10.94 53.5801 10.77 53.4001 10.66C53.3601 10.63 53.2701 10.58 53.2101 10.54C53.1301 10.49 52.9701 10.39 52.8601 10.32C52.7701 10.26 52.5901 10.15 52.4501 10.08C52.4301 10.07 52.3801 10.04 52.3501 10.02C46.7201 6.23001 37.6101 7.26001 32.0001 12.29Z" fill="white"/>
<path d="M15.2201 53.43C15.3601 53.45 15.6601 53.4899 15.8801 53.5099C15.9101 53.5099 15.9601 53.5099 16.0001 53.5099C16.1301 53.5099 16.4101 53.55 16.6101 53.56C16.6501 53.56 16.7301 53.56 16.7901 53.56C16.9101 53.56 17.1701 53.58 17.3501 53.58H18.1001C18.1601 53.58 18.2801 53.58 18.3801 53.58C18.4801 53.58 18.7001 53.58 18.8501 53.56C18.9201 53.56 19.0601 53.56 19.1701 53.54C19.2601 53.54 19.4601 53.5099 19.6001 53.5C19.6801 53.5 19.8401 53.4699 19.9701 53.4599C20.0601 53.4599 20.2301 53.43 20.3601 53.41C20.4501 53.41 20.6301 53.3699 20.7701 53.34C20.8401 53.34 21.0001 53.2999 21.1101 53.2799C21.2101 53.2599 21.4201 53.22 21.5701 53.18C21.6301 53.18 21.7601 53.1399 21.8601 53.11C21.9701 53.08 22.2001 53.0299 22.3701 52.9799C22.4201 52.9799 22.5301 52.9399 22.6001 52.9199C22.7201 52.8899 22.9701 52.81 23.1601 52.75C23.2001 52.75 23.2801 52.7099 23.3401 52.6899C23.4801 52.6499 23.7501 52.55 23.9501 52.47C23.9801 52.47 24.0301 52.4399 24.0701 52.43C24.2201 52.3699 24.5201 52.25 24.7401 52.15C24.7501 52.15 24.7701 52.15 24.7901 52.13C26.5201 51.37 28.1601 50.31 29.6301 48.97C22.3001 41.63 15.4901 34.8099 12.4201 31.74L12.1901 31.51C12.1201 31.44 11.9901 31.3099 11.9001 31.2199C11.9001 31.2199 11.8801 31.2 11.8701 31.19C11.7401 31.05 11.4701 30.7699 11.2801 30.5599C11.2601 30.5299 11.2101 30.48 11.1701 30.44C11.0701 30.33 10.8601 30.09 10.7101 29.91C10.6901 29.8799 10.6401 29.82 10.6001 29.78C10.4901 29.65 10.2701 29.37 10.1201 29.17C10.1201 29.17 10.1001 29.1399 10.0901 29.1299C9.85007 28.83 9.42007 28.19 9.12007 27.7C9.12007 27.7 9.09007 27.66 9.08007 27.6299C8.99007 27.4799 8.81007 27.1799 8.69007 26.9599C8.69007 26.9399 8.66007 26.91 8.65007 26.8899C6.62007 24.03 5.75006 18.0899 6.72007 13.6199C6.72007 13.6099 6.72007 13.6 6.72007 13.59C6.82007 13.04 7.14007 11.94 7.43007 11.14C7.43007 11.12 7.45007 11.0899 7.46007 11.0699C7.51007 10.9299 7.56007 10.79 7.59007 10.72C7.59007 10.68 6.53007 11.8999 5.19007 13.4399C2.77007 16.2399 0.100065 23.36 0.100065 30.75C-0.569935 35.74 2.36007 44.21 6.63007 49.65C8.30007 51.29 12.1201 52.99 15.1501 53.45C15.1701 53.43 15.2001 53.43 15.2201 53.43Z" fill="white"/>
<path d="M7.87012 18.3301C7.87012 18.4901 7.89012 18.8101 7.91012 19.0501V19.0901C7.91012 19.2501 7.95012 19.5701 7.98012 19.8001C7.98012 19.8001 7.98012 19.8301 7.98012 19.8501C8.00012 20.0101 8.04012 20.3201 8.08012 20.5601C8.08012 20.5601 8.08012 20.5901 8.08012 20.6101C8.10012 20.7601 8.16012 21.0801 8.21012 21.3101C8.21012 21.3101 8.21012 21.3401 8.21012 21.3601C8.24012 21.5101 8.31012 21.8201 8.37012 22.0501C8.37012 22.0501 8.37012 22.0901 8.37012 22.1001C8.41012 22.2501 8.49012 22.5501 8.56012 22.7801C8.56012 22.7801 8.56012 22.8201 8.58012 22.8401C8.62012 22.9901 8.72012 23.2901 8.80012 23.5101C8.80012 23.5101 8.82012 23.5501 8.82012 23.5801C8.87012 23.7201 8.98012 24.0201 9.07012 24.2301C9.07012 24.2301 9.09012 24.2801 9.10012 24.3001C9.15012 24.4401 9.28012 24.7301 9.37012 24.9401C9.37012 24.9601 9.39012 24.9901 9.40012 25.0101C9.46012 25.1501 9.60012 25.4301 9.70012 25.6401C9.70012 25.6601 9.72012 25.6901 9.74012 25.7101C9.81012 25.8501 9.96012 26.1201 10.0701 26.3301C10.0701 26.3301 10.1001 26.3701 10.1101 26.3901C10.1801 26.5301 10.3501 26.8001 10.4701 27.0001C10.4701 27.0001 10.4901 27.0301 10.5001 27.0501C10.5801 27.1901 10.7601 27.4601 10.9001 27.6601C11.0301 27.8501 11.3101 28.2301 11.5301 28.5001C11.5701 28.5501 11.6401 28.6401 11.6901 28.7101C11.8301 28.8901 12.1401 29.2601 12.3801 29.5201C14.6801 27.2401 23.4301 18.5401 29.6101 12.3601L30.0601 11.9101C30.0601 11.9101 30.1201 11.8401 30.1601 11.8101H30.1701C30.1701 11.8101 30.1901 11.7801 30.2001 11.7801C30.3301 11.6501 30.5901 11.4001 30.7901 11.2201C30.8201 11.1901 30.8901 11.1301 30.9301 11.0901C31.0501 10.9801 31.3001 10.7701 31.4901 10.6101C31.5101 10.6001 31.5401 10.5701 31.5701 10.5501C31.7501 10.4001 32.1401 10.1001 32.4301 9.89006C32.4901 9.84006 32.6201 9.75006 32.7201 9.68006C32.8701 9.58006 33.1801 9.37006 33.4101 9.23006C38.5701 5.93006 45.0001 5.31006 47.8201 6.40006C49.3801 7.00006 49.4101 6.43006 47.8801 5.11006C45.1501 2.73006 38.0701 0.100063 30.7401 0.100063C25.6801 -0.579937 17.1301 2.41006 11.6601 6.78006C11.6001 6.86006 11.4801 7.02006 11.3901 7.13006C11.3401 7.19006 11.2501 7.31006 11.1801 7.40006C11.1201 7.49006 11.0001 7.66006 10.9101 7.79006C10.8601 7.85006 10.7801 7.98006 10.7101 8.07006C10.6701 8.14006 10.5801 8.28006 10.5101 8.39006C10.2801 8.74006 9.87012 9.47006 9.60012 10.0301C9.60012 10.0501 9.56012 10.1001 9.55012 10.1401C9.49012 10.2701 9.37012 10.5401 9.28012 10.7401C9.28012 10.7601 9.25012 10.8201 9.23012 10.8501C9.17012 10.9801 9.06012 11.2601 8.98012 11.4701C8.98012 11.4901 8.95012 11.5401 8.94012 11.5801C8.89012 11.7201 8.79012 12.0001 8.72012 12.2101C8.72012 12.2301 8.70012 12.2801 8.69012 12.3101C8.64012 12.4501 8.56012 12.7401 8.50012 12.9601C8.50012 12.9801 8.48012 13.0201 8.47012 13.0501C8.43012 13.1901 8.35012 13.4901 8.30012 13.7201C8.30012 13.7401 8.30012 13.7701 8.28012 13.8001C8.25012 13.9501 8.18012 14.2501 8.14012 14.4801C8.14012 14.4901 8.14012 14.5301 8.14012 14.5501C8.11012 14.7001 8.06012 15.0101 8.03012 15.2401C8.03012 15.2501 8.03012 15.2801 8.03012 15.3001C8.01012 15.4501 7.97012 15.7701 7.95012 16.0001C7.95012 16.0001 7.95012 16.0401 7.95012 16.0601C7.93012 16.2201 7.91012 16.5301 7.90012 16.7701V16.8201C7.90012 16.9801 7.88012 17.3001 7.88012 17.5301V17.5801C7.88012 17.7401 7.88012 18.0601 7.88012 18.3001C7.88012 18.2901 7.88012 18.3201 7.89012 18.3301" fill="#009FC8"/>
<path d="M58.06 45.5801L47.19 34.7001C46.92 34.4301 46.47 34.4301 46.2 34.7001L41.29 39.5901C37.26 43.6101 34.18 46.6801 31.86 49.0001H31.87L31.31 49.5701C30.65 50.2901 29.16 51.4901 27.97 52.2401C27.95 52.2401 27.92 52.2701 27.89 52.2901C27.54 52.5201 26.79 52.9401 26.22 53.2201C26.18 53.2401 26.11 53.2801 26.05 53.3101C25.94 53.3601 25.73 53.4601 25.56 53.5401C25.5 53.5701 25.39 53.6201 25.3 53.6501C25.2 53.7001 24.99 53.7801 24.84 53.8501C24.76 53.8801 24.59 53.9401 24.47 53.9901C24.33 54.0501 24.03 54.1501 23.81 54.2301C23.72 54.2601 23.54 54.3201 23.4 54.3601C23.32 54.3901 23.15 54.4301 23.03 54.4701C22.93 54.5001 22.71 54.5601 22.55 54.6001C22.48 54.6201 22.35 54.6501 22.25 54.6801C22.08 54.7201 21.74 54.8001 21.48 54.8501C21.43 54.8501 21.34 54.8801 21.27 54.8901C21.13 54.9201 20.85 54.9601 20.64 55.0001C20.59 55.0001 20.48 55.0201 20.4 55.0401C20.24 55.0601 19.93 55.1001 19.69 55.1301C19.67 55.1301 19.62 55.1301 19.58 55.1301C19.39 55.1501 19 55.1801 18.71 55.1901H18.64C18.46 55.1901 18.1 55.2101 17.83 55.2101H17.71C17.55 55.2101 17.23 55.2101 17 55.2101H16.95C16.73 55.2101 16.29 55.1701 15.96 55.1401C15.91 55.1401 15.82 55.1401 15.75 55.1201C15.55 55.1001 15.16 55.0501 14.86 55.0101C14.84 55.0101 14.8 55.0101 14.77 55.0101C14.58 54.9801 14.18 54.9101 13.89 54.8501C13.79 54.8301 13.57 54.7801 13.41 54.7401C13.33 54.7201 13.17 54.6801 13.05 54.6501C12.92 54.6201 12.64 54.5401 12.44 54.4801C12.42 54.4801 12.37 54.4601 12.33 54.4501C11.79 54.2901 11.26 54.1101 10.73 53.9001L11.22 54.3901C16.69 58.9201 23.62 61.4101 30.73 61.4101C37.84 61.4101 45.07 58.8101 50.61 54.0901L58.07 46.6301C58.34 46.3101 58.34 45.8601 58.07 45.5901" fill="white"/>
<path d="M73.96 16.59C77.75 13.4 83.19 11.8 90.3 11.8C96.71 11.8 101.77 13.1 105.45 15.69C109.14 18.29 111.25 21.9 111.77 26.53H100.86C100.5 24.78 99.42 23.34 97.64 22.22C95.85 21.1 93.41 20.53 90.3 20.53C86.56 20.53 83.75 21.39 81.87 23.11C79.99 24.83 79.04 27.2801 79.04 30.4501C79.04 33.6201 79.99 36.09 81.89 37.84C83.79 39.59 86.59 40.4701 90.3 40.4701C93.41 40.4701 95.86 39.9 97.64 38.76C99.43 37.62 100.5 36.16 100.86 34.37H111.77C111.24 39.03 109.13 42.67 105.45 45.28C101.76 47.89 96.71 49.2001 90.3 49.2001C83.19 49.2001 77.74 47.6 73.96 44.39C70.17 41.18 68.28 36.5401 68.28 30.4501C68.28 24.4001 70.18 19.78 73.96 16.59Z" fill="white"/>
<path d="M154.57 12.79V20.83H128.13V26.48H153.58V34.52H128.13V40.17H154.57V48.21H117.87V12.79H154.57Z" fill="white"/>
<path d="M197.66 38.68V12.79H207.88V48.21H192.85L171.97 22.31V48.21H161.7V12.79H176.78L197.66 38.68Z" fill="white"/>
<path d="M224.79 36.6C224.79 38.19 225.72 39.4 227.59 40.25C229.46 41.09 232.61 41.51 237.04 41.51C241.07 41.51 243.85 41.21 245.37 40.62C246.89 40.02 247.65 39.13 247.65 37.94C247.65 37.05 247.37 36.39 246.81 35.96C246.25 35.53 245.16 35.19 243.54 34.94C241.92 34.69 239.26 34.45 235.55 34.22C230.62 33.89 226.66 33.3 223.67 32.46C220.68 31.62 218.46 30.4 217.02 28.81C215.58 27.22 214.86 25.12 214.86 22.51C214.86 18.94 216.65 16.26 220.22 14.47C223.79 12.68 228.75 11.79 235.1 11.79C241.98 11.79 247.29 12.82 251.05 14.87C254.8 16.92 256.75 19.9 256.88 23.8H246.17C246.17 22.25 245.28 21.14 243.49 20.48C241.71 19.82 238.81 19.49 234.81 19.49C231.27 19.49 228.85 19.75 227.54 20.28C226.23 20.81 225.58 21.6 225.58 22.66C225.58 23.42 225.86 24.02 226.42 24.44C226.98 24.87 228.05 25.23 229.62 25.51C231.19 25.79 233.61 26.06 236.89 26.33C242.18 26.73 246.24 27.21 249.07 27.77C251.9 28.33 254.15 29.36 255.84 30.85C257.53 32.34 258.37 34.55 258.37 37.5C258.37 41.8 256.58 44.82 252.99 46.58C249.4 48.33 244.2 49.21 237.39 49.21C229.88 49.21 224.17 48.23 220.25 46.28C216.33 44.33 214.26 41.11 214.02 36.61H224.79V36.6Z" fill="white"/>
<path d="M274.8 12.79H264.53V48.21H274.8V12.79Z" fill="white"/>
<path d="M291.69 36.6C291.69 38.19 292.62 39.4 294.49 40.25C296.36 41.09 299.51 41.51 303.94 41.51C307.97 41.51 310.75 41.21 312.27 40.62C313.79 40.02 314.55 39.13 314.55 37.94C314.55 37.05 314.27 36.39 313.71 35.96C313.15 35.53 312.06 35.19 310.44 34.94C308.82 34.69 306.16 34.45 302.45 34.22C297.52 33.89 293.56 33.3 290.57 32.46C287.58 31.62 285.36 30.4 283.92 28.81C282.48 27.22 281.76 25.12 281.76 22.51C281.76 18.94 283.55 16.26 287.12 14.47C290.69 12.68 295.65 11.79 302 11.79C308.88 11.79 314.19 12.82 317.95 14.87C321.7 16.92 323.65 19.9 323.78 23.8H313.07C313.07 22.25 312.18 21.14 310.39 20.48C308.61 19.82 305.71 19.49 301.71 19.49C298.17 19.49 295.75 19.75 294.44 20.28C293.13 20.81 292.48 21.6 292.48 22.66C292.48 23.42 292.76 24.02 293.32 24.44C293.88 24.87 294.95 25.23 296.52 25.51C298.09 25.79 300.51 26.06 303.79 26.33C309.08 26.73 313.14 27.21 315.97 27.77C318.8 28.33 321.05 29.36 322.74 30.85C324.43 32.34 325.27 34.55 325.27 37.5C325.27 41.8 323.48 44.82 319.89 46.58C316.3 48.33 311.1 49.21 304.29 49.21C296.78 49.21 291.07 48.23 287.15 46.28C283.23 44.33 281.16 41.11 280.92 36.61H291.69V36.6Z" fill="white"/>
</g>
<defs>
<clipPath id="clip0_3_122">
<rect width="325.27" height="61.4" fill="white"/>
</clipPath>
</defs>
</svg>
